<?xml version="1.0" encoding="UTF-8" standalone="no"?>
<!-- Generator: Adobe Illustrator 16.0.0, SVG Export Plug-In . SVG Version: 6.00 Build 0)  -->

<svg
   xmlns:dc="http://purl.org/dc/elements/1.1/"
   xmlns:cc="http://creativecommons.org/ns#"
   xmlns:rdf="http://www.w3.org/1999/02/22-rdf-syntax-ns#"
   xmlns:svg="http://www.w3.org/2000/svg"
   xmlns="http://www.w3.org/2000/svg"
   xmlns:sodipodi="http://sodipodi.sourceforge.net/DTD/sodipodi-0.dtd"
   xmlns:inkscape="http://www.inkscape.org/namespaces/inkscape"
   version="1.1"
   id="Capa_1"
   x="0px"
   y="0px"
   width="46.999px"
   height="46.999px"
   viewBox="0 0 46.999 46.999"
   style="enable-background:new 0 0 46.999 46.999;"
   xml:space="preserve"
   sodipodi:docname="analysis.svg"
   inkscape:version="0.92.4 (5da689c313, 2019-01-14)"><metadata
   id="metadata54"><rdf:RDF><cc:Work
       rdf:about=""><dc:format>image/svg+xml</dc:format><dc:type
         rdf:resource="http://purl.org/dc/dcmitype/StillImage" /></cc:Work></rdf:RDF></metadata><defs
   id="defs52" /><sodipodi:namedview
   pagecolor="#ffffff"
   bordercolor="#666666"
   borderopacity="1"
   objecttolerance="10"
   gridtolerance="10"
   guidetolerance="10"
   inkscape:pageopacity="0"
   inkscape:pageshadow="2"
   inkscape:window-width="640"
   inkscape:window-height="480"
   id="namedview50"
   showgrid="false"
   inkscape:zoom="5.0213834"
   inkscape:cx="23.4995"
   inkscape:cy="23.4995"
   inkscape:window-x="0"
   inkscape:window-y="0"
   inkscape:window-maximized="0"
   inkscape:current-layer="Capa_1" />
<g
   id="g17"
   style="fill:#ececec">
	<g
   id="Layer_1_80_"
   style="fill:#ececec">
		<g
   id="g14"
   style="fill:#ececec">
			<path
   d="M36.854,37.92H10.147c-1.18,0-2.136,0.956-2.136,2.136s0.956,2.137,2.136,2.137h26.705c1.181,0,2.137-0.957,2.137-2.137     S38.032,37.92,36.854,37.92z"
   id="path2"
   style="fill:#ececec" />
			<path
   d="M7.478,21.896v5.341c0,0.885,0.718,1.603,1.602,1.603c0.885,0,1.603-0.718,1.603-1.603v-5.341     c0-0.885-0.718-1.602-1.603-1.602C8.195,20.295,7.478,21.012,7.478,21.896z"
   id="path4"
   style="fill:#ececec" />
			<path
   d="M12.818,19.761v7.477c0,0.885,0.718,1.603,1.603,1.603c0.884,0,1.602-0.718,1.602-1.603v-7.477     c0-0.885-0.718-1.603-1.602-1.603C13.536,18.158,12.818,18.876,12.818,19.761z"
   id="path6"
   style="fill:#ececec" />
			<path
   d="M18.159,17.624v9.613c0,0.885,0.718,1.603,1.603,1.603c0.884,0,1.602-0.718,1.602-1.603v-9.613     c0-0.885-0.718-1.603-1.602-1.603C18.877,16.021,18.159,16.739,18.159,17.624z"
   id="path8"
   style="fill:#ececec" />
			<path
   d="M44.863,4.806H2.137C0.957,4.806,0,5.763,0,6.943v26.705c0,1.18,0.957,2.137,2.137,2.137H42.91     c-0.062-0.055-0.133-0.1-0.191-0.157l-2.957-2.959c-1.705,0.963-3.636,1.478-5.615,1.478c-2.698,0-5.252-0.93-7.306-2.633H4.272     V9.078h38.455V15.1c1.856,2.095,2.883,4.755,2.883,7.581c0,1.979-0.514,3.909-1.476,5.612l2.865,2.867V6.942     C47,5.763,46.043,4.806,44.863,4.806z"
   id="path10"
   style="fill:#ececec" />
			<path
   d="M42.371,29.554c-0.213-0.214-0.499-0.301-0.777-0.271l-0.449-0.449c1.5-1.704,2.328-3.861,2.328-6.151     c0-2.49-0.969-4.832-2.729-6.593c-1.763-1.765-4.104-2.733-6.597-2.733c-2.489,0-4.83,0.969-6.592,2.733     c-1.764,1.761-2.734,4.103-2.734,6.593c0,2.49,0.972,4.833,2.734,6.594c1.762,1.763,4.103,2.731,6.592,2.731     c2.293,0,4.449-0.827,6.151-2.329l0.451,0.448c-0.03,0.28,0.056,0.563,0.271,0.779l3.213,3.213     c0.187,0.187,0.431,0.278,0.677,0.278c0.243,0,0.489-0.092,0.677-0.278c0.372-0.374,0.372-0.979,0-1.351L42.371,29.554z      M39.391,27.922c-1.4,1.401-3.263,2.175-5.244,2.175c-1.978,0-3.84-0.772-5.24-2.173c-1.399-1.399-2.172-3.262-2.172-5.242     c0-1.979,0.771-3.841,2.172-5.241c1.4-1.401,3.264-2.173,5.24-2.173c1.981,0,3.844,0.771,5.244,2.173     c1.398,1.4,2.17,3.262,2.17,5.241C41.561,24.662,40.789,26.522,39.391,27.922z"
   id="path12"
   style="fill:#ececec" />
		</g>
	</g>
</g>
<g
   id="g19">
</g>
<g
   id="g21">
</g>
<g
   id="g23">
</g>
<g
   id="g25">
</g>
<g
   id="g27">
</g>
<g
   id="g29">
</g>
<g
   id="g31">
</g>
<g
   id="g33">
</g>
<g
   id="g35">
</g>
<g
   id="g37">
</g>
<g
   id="g39">
</g>
<g
   id="g41">
</g>
<g
   id="g43">
</g>
<g
   id="g45">
</g>
<g
   id="g47">
</g>
</svg>