<?xml version="1.0" encoding="UTF-8" standalone="no"?>
<!-- Generator: Adobe Illustrator 19.0.0, SVG Export Plug-In . SVG Version: 6.00 Build 0)  -->

<svg
   xmlns:dc="http://purl.org/dc/elements/1.1/"
   xmlns:cc="http://creativecommons.org/ns#"
   xmlns:rdf="http://www.w3.org/1999/02/22-rdf-syntax-ns#"
   xmlns:svg="http://www.w3.org/2000/svg"
   xmlns="http://www.w3.org/2000/svg"
   xmlns:sodipodi="http://sodipodi.sourceforge.net/DTD/sodipodi-0.dtd"
   xmlns:inkscape="http://www.inkscape.org/namespaces/inkscape"
   version="1.1"
   id="Layer_1"
   x="0px"
   y="0px"
   viewBox="0 0 489.8 489.8"
   style="enable-background:new 0 0 489.8 489.8;"
   xml:space="preserve"
   sodipodi:docname="direct.svg"
   inkscape:version="0.92.4 (5da689c313, 2019-01-14)"><metadata
   id="metadata50"><rdf:RDF><cc:Work
       rdf:about=""><dc:format>image/svg+xml</dc:format><dc:type
         rdf:resource="http://purl.org/dc/dcmitype/StillImage" /><dc:title></dc:title></cc:Work></rdf:RDF></metadata><defs
   id="defs48" /><sodipodi:namedview
   pagecolor="#ffffff"
   bordercolor="#666666"
   borderopacity="1"
   objecttolerance="10"
   gridtolerance="10"
   guidetolerance="10"
   inkscape:pageopacity="0"
   inkscape:pageshadow="2"
   inkscape:window-width="1366"
   inkscape:window-height="705"
   id="namedview46"
   showgrid="false"
   inkscape:zoom="0.48182933"
   inkscape:cx="244.89999"
   inkscape:cy="244.89999"
   inkscape:window-x="-8"
   inkscape:window-y="-8"
   inkscape:window-maximized="1"
   inkscape:current-layer="g11" />
<g
   id="g13">
	<g
   id="g11">
		<path
   id="XMLID_798_"
   style="fill:#a7a9ac;stroke-width:1.569345"
   d="m 377.97405,333.0713 v -38.76282 c 0,-8.1606 -3.6095,-16.00732 -9.88688,-21.18616 -34.99639,-28.71901 -72.66067,-47.86502 -80.35046,-51.63145 -0.94161,-0.4708 -1.41241,-1.25548 -1.41241,-2.19708 v -54.45627 c 6.90512,-4.55111 11.29928,-12.39783 11.29928,-21.18616 V 87.154945 c 0,-28.09128 -22.7555,-50.84678 -50.84678,-50.84678 h -6.12044 -6.12045 c -28.09127,0 -50.84678,22.7555 -50.84678,50.84678 v 56.496415 c 0,8.78833 4.5511,16.63505 11.29929,21.18616 v 54.45627 c 0,0.9416 -0.47081,1.88321 -1.41241,2.19708 -7.68979,3.76643 -45.35407,22.7555 -80.35047,51.63145 -6.27738,5.17884 -9.88687,13.02556 -9.88687,21.18616 v 38.76282"
   inkscape:connector-curvature="0" />
		
		
		
		<path
   d="m 104.28028,262.13691 c -9.573007,7.84672 -15.222647,19.61681 -15.222647,32.17157 v 38.76282 c 0,7.84672 6.43431,14.28104 14.281037,14.28104 7.84672,0 14.28104,-6.43432 14.28104,-14.28104 v -38.76282 c 0,-3.92336 1.72628,-7.68979 4.70803,-10.20074 33.89786,-27.77741 70.62053,-46.29568 77.52565,-49.74824 5.64964,-2.82482 9.41607,-8.6314 9.41607,-15.06571 v -54.45627 c 0,-4.70804 -2.35402,-9.25914 -6.27738,-11.77009 -3.13869,-2.04015 -5.02191,-5.64964 -5.02191,-9.41607 V 87.154945 c 0,-20.24455 16.47813,-36.72268 36.56574,-36.72268 h 12.08396 c 20.24455,0 36.72267,16.47813 36.72267,36.72268 v 56.496415 c 0,3.76643 -1.88321,7.21898 -5.0219,9.41607 -3.92336,2.66788 -6.27738,7.06205 -6.27738,11.77009 v 54.45627 c 0,6.27738 3.60949,12.24089 9.41607,15.06571 7.06205,3.45256 43.78472,21.97083 77.52564,49.74824 2.98176,2.51095 4.70804,6.12044 4.70804,10.20074 v 38.76282 c 0,7.84672 6.43431,14.28104 14.28104,14.28104 7.84672,0 14.28103,-6.43432 14.28103,-14.28104 v -38.76282 c 0,-12.55476 -5.4927,-24.16791 -15.22264,-32.17157 -29.97449,-24.63872 -62.14606,-42.52925 -76.58404,-50.06211 v -40.64604 c 7.21899,-7.37592 11.29929,-17.26279 11.29929,-27.7774 V 87.154945 c 0,-35.938 -29.18982,-65.12782 -65.12782,-65.12782 h -12.08396 c -35.938,0 -65.12782,29.18982 -65.12782,65.12782 v 56.496415 c 0,10.51461 4.0803,20.40148 11.29929,27.7774 v 40.64604 c -14.28104,7.53286 -46.29568,25.42339 -76.4271,50.06211 z"
   id="path9"
   style="fill:#666666;stroke-width:1.569345"
   inkscape:connector-curvature="0" />
	<g
   transform="matrix(0.66072302,0,0,0.59613323,151.99222,328.72854)"
   id="g4"><path
     inkscape:connector-curvature="0"
     d="m 265.171,125.577 -80,-80 c -4.881,-4.881 -12.797,-4.881 -17.678,0 -4.882,4.882 -4.882,12.796 0,17.678 l 58.661,58.661 H 12.5 c -6.903,0 -12.5,5.597 -12.5,12.5 0,6.902 5.597,12.5 12.5,12.5 h 213.654 l -58.659,58.661 c -4.882,4.882 -4.882,12.796 0,17.678 2.44,2.439 5.64,3.661 8.839,3.661 3.199,0 6.398,-1.222 8.839,-3.661 l 79.998,-80 c 4.882,-4.882 4.882,-12.796 0,-17.678 z"
     id="path2"
     style="fill:#e6e6e6" /></g></g>
</g>
<g
   id="g15">
</g>
<g
   id="g17">
</g>
<g
   id="g19">
</g>
<g
   id="g21">
</g>
<g
   id="g23">
</g>
<g
   id="g25">
</g>
<g
   id="g27">
</g>
<g
   id="g29">
</g>
<g
   id="g31">
</g>
<g
   id="g33">
</g>
<g
   id="g35">
</g>
<g
   id="g37">
</g>
<g
   id="g39">
</g>
<g
   id="g41">
</g>
<g
   id="g43">
</g>
</svg>