<?xml version="1.0" encoding="UTF-8" standalone="no"?>
<!-- Generator: Adobe Illustrator 19.0.0, SVG Export Plug-In . SVG Version: 6.00 Build 0)  -->

<svg
   xmlns:dc="http://purl.org/dc/elements/1.1/"
   xmlns:cc="http://creativecommons.org/ns#"
   xmlns:rdf="http://www.w3.org/1999/02/22-rdf-syntax-ns#"
   xmlns:svg="http://www.w3.org/2000/svg"
   xmlns="http://www.w3.org/2000/svg"
   xmlns:sodipodi="http://sodipodi.sourceforge.net/DTD/sodipodi-0.dtd"
   xmlns:inkscape="http://www.inkscape.org/namespaces/inkscape"
   version="1.1"
   id="Layer_1"
   x="0px"
   y="0px"
   viewBox="0 0 489.8 489.8"
   style="enable-background:new 0 0 489.8 489.8;"
   xml:space="preserve"
   sodipodi:docname="nominate.svg"
   inkscape:version="0.92.4 (5da689c313, 2019-01-14)"><metadata
   id="metadata50"><rdf:RDF><cc:Work
       rdf:about=""><dc:format>image/svg+xml</dc:format><dc:type
         rdf:resource="http://purl.org/dc/dcmitype/StillImage" /></cc:Work></rdf:RDF></metadata><defs
   id="defs48" /><sodipodi:namedview
   pagecolor="#ffffff"
   bordercolor="#666666"
   borderopacity="1"
   objecttolerance="10"
   gridtolerance="10"
   guidetolerance="10"
   inkscape:pageopacity="0"
   inkscape:pageshadow="2"
   inkscape:window-width="1366"
   inkscape:window-height="705"
   id="namedview46"
   showgrid="false"
   inkscape:zoom="0.48182933"
   inkscape:cx="244.89999"
   inkscape:cy="244.89999"
   inkscape:window-x="-8"
   inkscape:window-y="-8"
   inkscape:window-maximized="1"
   inkscape:current-layer="g11" />
<g
   id="g13">
	<g
   id="g11">
		<path
   id="XMLID_798_"
   style="fill:#a7a9ac;stroke-width:1.20023382"
   d="M 473.97915,444.62618 V 414.9804 c 0,-6.24122 -2.76054,-12.24239 -7.56147,-16.20316 -26.76522,-21.96428 -55.57083,-36.60713 -61.45198,-39.48769 -0.72014,-0.36007 -1.08021,-0.96019 -1.08021,-1.68033 v -41.64811 c 5.28103,-3.48068 8.64169,-9.48185 8.64169,-16.20316 v -43.20842 c 0,-21.48418 -17.40339,-38.88757 -38.88758,-38.88757 h -4.68091 -4.68091 c -21.48419,0 -38.88758,17.40339 -38.88758,38.88757 v 43.20842 c 0,6.72131 3.48068,12.72248 8.64168,16.20316 v 41.64811 c 0,0.72014 -0.36007,1.44028 -1.08021,1.68033 -5.88114,2.88056 -34.68675,17.40339 -61.45197,39.48769 -4.80093,3.96077 -7.56147,9.96194 -7.56147,16.20316 v 29.64578"
   inkscape:connector-curvature="0" />
		<path
   d="m 95.274084,257.17966 c -3.021241,0 -5.49866,2.93511 -5.49866,6.51451 v 25.77171 c 0,30.71128 21.088286,55.69552 47.010556,55.69552 h 69.12605 l -9.06373,10.73821 c -2.11487,2.50558 -2.11487,6.65769 0,9.16327 1.08765,1.28859 2.47742,1.93288 3.8672,1.93288 1.38977,0 2.77954,-0.64429 3.86719,-1.93288 l 18.36916,-21.76277 c 1.02723,-1.217 1.63148,-2.86352 1.63148,-4.58164 0,-1.71811 -0.60425,-3.36464 -1.63148,-4.58163 l -18.36916,-21.76278 c -2.11487,-2.50558 -5.61951,-2.50558 -7.73439,0 -2.11487,2.50559 -2.11487,6.65769 0,9.16328 l 9.06373,10.73821 h -69.12605 c -19.87979,0 -36.07365,-19.18561 -36.07365,-42.73808 v -25.77171 c 0,-3.72258 -2.416997,-6.5861 -5.438246,-6.5861 z"
   id="path3"
   style="fill:#e6e6e6;stroke-width:0.6577006"
   inkscape:connector-curvature="0" />
		
		<path
   d="m 16.616544,285.1356 c 6.701987,0 12.197617,-5.49563 12.197617,-12.19762 v -33.10782 c 0,-3.35099 1.474438,-6.56795 4.021193,-8.71258 28.952587,-23.72504 60.317888,-39.54173 66.215639,-42.49061 4.825427,-2.41271 8.042387,-7.37218 8.042387,-12.86781 v -46.5118 c 0,-4.02119 -2.0106,-7.90834 -5.36159,-10.05298 -2.680797,-1.74251 -4.289277,-4.82543 -4.289277,-8.04238 V 62.897683 c 0,-17.291128 14.074177,-31.365302 31.231267,-31.365302 h 10.32106 c 17.29113,0 31.23126,14.074174 31.23126,31.365302 V 111.152 c 0,3.21695 -1.60847,6.16583 -4.28927,8.04238 -3.35099,2.27868 -5.36159,6.03179 -5.36159,10.05298 v 46.5118 c 0,5.36159 3.08291,10.4551 8.04239,12.86781 6.03178,2.94888 37.39709,18.76557 66.21563,42.49061 2.54676,2.14463 4.0212,5.22755 4.0212,8.71258 v 33.10782 c 0,6.70199 5.49562,12.19762 12.19761,12.19762 6.70199,0 12.19762,-5.49563 12.19762,-12.19762 v -33.10782 c 0,-10.72318 -4.69139,-20.64212 -13.00186,-27.47815 -25.60159,-21.04424 -53.07974,-36.32477 -65.41139,-42.75868 v -34.7163 c 6.16582,-6.29986 9.65086,-14.74437 9.65086,-23.72503 V 62.897683 c 0,-30.695103 -24.9314,-55.6264999 -55.6265,-55.6264999 h -10.32106 c -30.695107,0 -55.6265,24.9313969 -55.6265,55.6264999 V 111.152 c 0,8.98066 3.485033,17.42517 9.650862,23.72503 v 34.7163 C 70.232445,176.02724 42.754295,191.30777 17.152703,212.35201 8.9762786,219.054 4.1508474,229.10698 4.1508474,239.83016 v 33.10782 c 0.268079,6.83602 5.7637092,12.19762 12.4656966,12.19762 z"
   id="path7"
   style="fill:#e6e6e6;stroke-width:1.34039748"
   inkscape:connector-curvature="0" />
		<path
   d="m 264.65837,390.37561 c -7.32143,6.00117 -11.64227,15.00292 -11.64227,24.60479 v 29.64578 c 0,6.00116 4.92096,10.92212 10.92213,10.92212 6.00117,0 10.92213,-4.92096 10.92213,-10.92212 V 414.9804 c 0,-3.00058 1.32025,-5.88115 3.6007,-7.80152 25.92505,-21.24414 54.01052,-35.4069 59.29155,-38.04741 4.32084,-2.16042 7.2014,-6.60129 7.2014,-11.52225 v -41.64811 c 0,-3.6007 -1.80035,-7.08138 -4.80093,-9.00175 -2.40047,-1.56031 -3.84075,-4.32085 -3.84075,-7.20141 v -43.20842 c 0,-15.48301 12.60245,-28.08547 27.96545,-28.08547 h 9.2418 c 15.48301,0 28.08547,12.60246 28.08547,28.08547 v 43.20842 c 0,2.88056 -1.44028,5.52108 -3.84075,7.20141 -3.00058,2.04039 -4.80094,5.40105 -4.80094,9.00175 v 41.64811 c 0,4.80094 2.76054,9.36183 7.20141,11.52225 5.40105,2.64051 33.48652,16.80327 59.29155,38.04741 2.28044,1.92037 3.6007,4.68091 3.6007,7.80152 v 29.64578 c 0,6.00116 4.92096,10.92212 10.92213,10.92212 6.00117,0 10.92213,-4.92096 10.92213,-10.92212 V 414.9804 c 0,-9.60187 -4.20082,-18.4836 -11.64227,-24.60479 -22.92447,-18.84367 -47.52926,-32.52634 -58.57141,-38.28746 v -31.08606 c 5.52107,-5.6411 8.64168,-13.20257 8.64168,-21.24414 v -43.20842 c 0,-27.48535 -22.32435,-49.8097 -49.8097,-49.8097 h -9.2418 c -27.48536,0 -49.80971,22.32435 -49.80971,49.8097 v 43.20842 c 0,8.04157 3.12061,15.60304 8.64169,21.24414 v 31.08606 c -10.92213,5.76112 -35.4069,19.44379 -58.45139,38.28746 z"
   id="path9"
   style="fill:#666666;stroke-width:1.20023382"
   inkscape:connector-curvature="0" />
	</g>
</g>
<g
   id="g15">
</g>
<g
   id="g17">
</g>
<g
   id="g19">
</g>
<g
   id="g21">
</g>
<g
   id="g23">
</g>
<g
   id="g25">
</g>
<g
   id="g27">
</g>
<g
   id="g29">
</g>
<g
   id="g31">
</g>
<g
   id="g33">
</g>
<g
   id="g35">
</g>
<g
   id="g37">
</g>
<g
   id="g39">
</g>
<g
   id="g41">
</g>
<g
   id="g43">
</g>
</svg>