<?xml version="1.0" encoding="UTF-8" standalone="no"?>
<!-- Generator: Adobe Illustrator 16.0.0, SVG Export Plug-In . SVG Version: 6.00 Build 0)  -->

<svg
   xmlns:dc="http://purl.org/dc/elements/1.1/"
   xmlns:cc="http://creativecommons.org/ns#"
   xmlns:rdf="http://www.w3.org/1999/02/22-rdf-syntax-ns#"
   xmlns:svg="http://www.w3.org/2000/svg"
   xmlns="http://www.w3.org/2000/svg"
   xmlns:sodipodi="http://sodipodi.sourceforge.net/DTD/sodipodi-0.dtd"
   xmlns:inkscape="http://www.inkscape.org/namespaces/inkscape"
   version="1.1"
   id="Capa_1"
   x="0px"
   y="0px"
   width="367.264px"
   height="367.264px"
   viewBox="0 0 367.264 367.264"
   style="enable-background:new 0 0 367.264 367.264;"
   xml:space="preserve"
   sodipodi:docname="female.svg"
   inkscape:version="0.92.4 (5da689c313, 2019-01-14)"><metadata
   id="metadata61"><rdf:RDF><cc:Work
       rdf:about=""><dc:format>image/svg+xml</dc:format><dc:type
         rdf:resource="http://purl.org/dc/dcmitype/StillImage" /><dc:title /></cc:Work></rdf:RDF></metadata><defs
   id="defs59" /><sodipodi:namedview
   pagecolor="#ffffff"
   bordercolor="#666666"
   borderopacity="1"
   objecttolerance="10"
   gridtolerance="10"
   guidetolerance="10"
   inkscape:pageopacity="0"
   inkscape:pageshadow="2"
   inkscape:window-width="1366"
   inkscape:window-height="705"
   id="namedview57"
   showgrid="false"
   inkscape:zoom="0.64258951"
   inkscape:cx="183.632"
   inkscape:cy="183.632"
   inkscape:window-x="-8"
   inkscape:window-y="-8"
   inkscape:window-maximized="1"
   inkscape:current-layer="g12" />
<g
   id="g24">
	<g
   id="g22">
		
		<g
   id="g12"
   transform="translate(-101.15322,1.5562034)">
			<circle
   cx="285.82101"
   cy="61.598999"
   r="40.736"
   id="circle8"
   style="fill:#ececec" />
			<path
   d="m 365.921,207.192 -34.758,-84.667 c -1.988,-4.272 -3.747,-9.997 -11.914,-9.997 -3.017,0 -6.008,0 -9.463,0 H 267.25 c -3.521,0 -5.351,0 -9.688,0 -8.146,0 -12.396,5.308 -14.727,10.089 l -36.103,84.027 c -3.438,7.055 -0.566,15.578 6.411,19.039 6.982,3.46 15.43,0.547 18.868,-6.51 l 2.717,-5.571 c 0,0 0.844,-1.503 0.527,0.159 -1.965,10.348 -7.391,41.475 -7.391,41.475 -1.318,6.477 3.009,11.777 9.619,11.777 0,0 11.792,0 15.722,0 1.125,0 0.925,0.848 0.925,0.848 v 62.566 c 0,10.479 6.526,15.973 14.58,15.973 8.051,0 14.581,-5.494 14.581,-15.973 v -62.816 c 0,0 -0.033,-0.62 0.623,-0.598 0.847,0.027 2.991,0.004 3.952,0.004 0.548,0 0.479,0.66 0.479,0.66 v 62.75 c 0,10.479 6.53,15.973 14.584,15.973 8.051,0 14.58,-5.494 14.58,-15.973 v -62.399 c 0,0 -0.096,-1.015 1.112,-1.015 4.229,0 16.912,0 16.912,0 6.609,0 11.043,-5.32 9.851,-11.822 0,0 -5.438,-33.385 -6.887,-42.48 -0.415,-2.607 3.916,6.65 3.916,6.65 3.312,7.115 9.708,10.086 16.749,6.753 7.047,-3.334 10.071,-11.804 6.759,-18.922 z"
   id="path10"
   inkscape:connector-curvature="0"
   style="fill:#ececec" />
		</g>
		
	</g>
</g>
<g
   id="g26">
</g>
<g
   id="g28">
</g>
<g
   id="g30">
</g>
<g
   id="g32">
</g>
<g
   id="g34">
</g>
<g
   id="g36">
</g>
<g
   id="g38">
</g>
<g
   id="g40">
</g>
<g
   id="g42">
</g>
<g
   id="g44">
</g>
<g
   id="g46">
</g>
<g
   id="g48">
</g>
<g
   id="g50">
</g>
<g
   id="g52">
</g>
<g
   id="g54">
</g>
</svg>