<?xml version="1.0" encoding="UTF-8" standalone="no"?>
<!-- Generator: Adobe Illustrator 16.0.0, SVG Export Plug-In . SVG Version: 6.00 Build 0)  -->

<svg
   xmlns:dc="http://purl.org/dc/elements/1.1/"
   xmlns:cc="http://creativecommons.org/ns#"
   xmlns:rdf="http://www.w3.org/1999/02/22-rdf-syntax-ns#"
   xmlns:svg="http://www.w3.org/2000/svg"
   xmlns="http://www.w3.org/2000/svg"
   xmlns:sodipodi="http://sodipodi.sourceforge.net/DTD/sodipodi-0.dtd"
   xmlns:inkscape="http://www.inkscape.org/namespaces/inkscape"
   version="1.1"
   id="Capa_1"
   x="0px"
   y="0px"
   width="367.264px"
   height="367.264px"
   viewBox="0 0 367.264 367.264"
   style="enable-background:new 0 0 367.264 367.264;"
   xml:space="preserve"
   sodipodi:docname="male.svg"
   inkscape:version="0.92.4 (5da689c313, 2019-01-14)"><metadata
   id="metadata61"><rdf:RDF><cc:Work
       rdf:about=""><dc:format>image/svg+xml</dc:format><dc:type
         rdf:resource="http://purl.org/dc/dcmitype/StillImage" /><dc:title></dc:title></cc:Work></rdf:RDF></metadata><defs
   id="defs59" /><sodipodi:namedview
   pagecolor="#ffffff"
   bordercolor="#666666"
   borderopacity="1"
   objecttolerance="10"
   gridtolerance="10"
   guidetolerance="10"
   inkscape:pageopacity="0"
   inkscape:pageshadow="2"
   inkscape:window-width="1366"
   inkscape:window-height="705"
   id="namedview57"
   showgrid="false"
   inkscape:zoom="0.64258951"
   inkscape:cx="183.632"
   inkscape:cy="183.632"
   inkscape:window-x="-8"
   inkscape:window-y="-8"
   inkscape:window-maximized="1"
   inkscape:current-layer="g22" />
<g
   id="g24">
	<g
   id="g22">
		<g
   id="g6"
   transform="translate(104.26563,1.5562034)"
   style="fill:#ececec">
			<path
   d="m 125.652,121.915 c -2.417,-6.508 -8.949,-10.185 -15.59,-10.185 -3.315,0 -3.621,0.085 -5.595,0.085 H 50.761 c -1.975,0 -3.73,0 -5.598,0 -7.584,0 -13.17,3.591 -15.587,10.1 L 0.9,209.121 c -2.732,7.358 0.96,15.561 8.245,18.32 7.286,2.76 15.407,-0.969 18.14,-8.326 l 7.624,-20.527 c 0,0 0.544,-2.07 0.544,6.967 v 121.039 c 0,10.582 8.494,19.16 18.973,19.16 10.479,0 18.973,-8.578 18.973,-19.16 v -79.075 c 0,0 -0.092,-0.699 0.644,-0.699 1.78,0 5.343,0 7.124,0 0.703,0 0.664,0.699 0.664,0.699 v 79.075 c 0,10.582 8.494,19.16 18.973,19.16 10.479,0 18.973,-8.578 18.973,-19.16 V 205.555 c 0,-9.182 0.797,-6.289 0.797,-6.289 l 7.372,19.851 c 2.731,7.358 10.854,11.086 18.14,8.326 7.285,-2.761 10.978,-10.962 8.245,-18.319 z"
   id="path2"
   inkscape:connector-curvature="0"
   style="fill:#ececec" />
			<ellipse
   cx="77.990997"
   cy="61.825001"
   rx="40.736"
   ry="40.317001"
   id="ellipse4"
   style="fill:#ececec" />
		</g>
		
		
	</g>
</g>
<g
   id="g26">
</g>
<g
   id="g28">
</g>
<g
   id="g30">
</g>
<g
   id="g32">
</g>
<g
   id="g34">
</g>
<g
   id="g36">
</g>
<g
   id="g38">
</g>
<g
   id="g40">
</g>
<g
   id="g42">
</g>
<g
   id="g44">
</g>
<g
   id="g46">
</g>
<g
   id="g48">
</g>
<g
   id="g50">
</g>
<g
   id="g52">
</g>
<g
   id="g54">
</g>
</svg>