<?xml version="1.0" encoding="UTF-8" standalone="no"?>
<!-- Generator: Adobe Illustrator 19.0.0, SVG Export Plug-In . SVG Version: 6.00 Build 0)  -->

<svg
   xmlns:dc="http://purl.org/dc/elements/1.1/"
   xmlns:cc="http://creativecommons.org/ns#"
   xmlns:rdf="http://www.w3.org/1999/02/22-rdf-syntax-ns#"
   xmlns:svg="http://www.w3.org/2000/svg"
   xmlns="http://www.w3.org/2000/svg"
   xmlns:sodipodi="http://sodipodi.sourceforge.net/DTD/sodipodi-0.dtd"
   xmlns:inkscape="http://www.inkscape.org/namespaces/inkscape"
   version="1.1"
   id="Capa_1"
   x="0px"
   y="0px"
   viewBox="0 0 512 512"
   style="enable-background:new 0 0 512 512;"
   xml:space="preserve"
   sodipodi:docname="no-response.svg"
   inkscape:version="0.92.4 (5da689c313, 2019-01-14)"><metadata
   id="metadata85"><rdf:RDF><cc:Work
       rdf:about=""><dc:format>image/svg+xml</dc:format><dc:type
         rdf:resource="http://purl.org/dc/dcmitype/StillImage" /></cc:Work></rdf:RDF></metadata><defs
   id="defs83" /><sodipodi:namedview
   pagecolor="#ffffff"
   bordercolor="#666666"
   borderopacity="1"
   objecttolerance="10"
   gridtolerance="10"
   guidetolerance="10"
   inkscape:pageopacity="0"
   inkscape:pageshadow="2"
   inkscape:window-width="640"
   inkscape:window-height="480"
   id="namedview81"
   showgrid="false"
   inkscape:zoom="0.4609375"
   inkscape:cx="256"
   inkscape:cy="256"
   inkscape:window-x="0"
   inkscape:window-y="0"
   inkscape:window-maximized="0"
   inkscape:current-layer="Capa_1" />

<g
   id="g12"
   style="fill:#ececec"
   transform="matrix(1.343274,0,0,1.343274,-229.99356,34.711864)">
	<g
   id="g10"
   style="fill:#ececec">
		<path
   d="M 366.655,0 H 341.346 C 261.202,0 196,65.202 196,145.346 c 0,80.144 65.202,145.345 145.345,145.345 h 25.309 c 12.509,0 24.89,-1.589 36.89,-4.729 l 37.387,37.366 c 1.913,1.911 4.469,2.927 7.071,2.927 1.289,0 2.589,-0.249 3.826,-0.762 3.736,-1.548 6.172,-5.194 6.172,-9.238 V 258.399 C 473.829,245.58 486.978,229.387 496.206,211.297 506.687,190.751 512,168.562 512,145.346 512,65.202 446.798,0 366.655,0 Z m 75.328,245.535 c -2.507,1.889 -3.983,4.847 -3.983,7.988 v 38.6 l -24.471,-24.458 c -1.904,-1.902 -4.458,-2.927 -7.07,-2.927 -0.98,0 -1.97,0.145 -2.936,0.442 -11.903,3.658 -24.307,5.512 -36.868,5.512 H 341.346 C 272.229,270.692 216,214.462 216,145.346 216,76.23 272.23,20 341.346,20 h 25.309 C 435.771,20 492,76.23 492,145.346 c 0,39.731 -18.23,76.249 -50.017,100.189 z"
   id="path8"
   style="fill:#ececec"
   inkscape:connector-curvature="0" />
	</g>
</g>
<g
   id="g18"
   style="fill:#ececec"
   transform="matrix(1.343274,0,0,1.343274,-229.99356,34.711864)">
	<g
   id="g16"
   style="fill:#ececec">
		<path
   d="M 399.033,109.421 C 397.59,88.486 380.714,71.61 359.778,70.167 c -11.868,-0.815 -23.194,3.188 -31.863,11.281 -8.55,7.981 -13.453,19.263 -13.453,30.954 0,5.523 4.478,10 10,10 5.522,0 10,-4.477 10,-10 0,-6.259 2.522,-12.06 7.1,-16.333 4.574,-4.269 10.552,-6.382 16.842,-5.948 11.028,0.76 19.917,9.649 20.677,20.676 0.768,11.137 -6.539,20.979 -17.373,23.403 -8.778,1.964 -14.908,9.592 -14.908,18.549 v 24.025 c 0,5.523 4.478,10 10,10 5.523,0 10,-4.477 9.999,-10 v -23.226 c 20.15,-4.868 33.669,-23.306 32.234,-44.127 z"
   id="path14"
   style="fill:#ececec"
   inkscape:connector-curvature="0" />
	</g>
</g>
<g
   id="g24"
   style="fill:#ececec"
   transform="matrix(1.343274,0,0,1.343274,-229.99356,34.711864)">
	<g
   id="g22"
   style="fill:#ececec">
		<path
   d="m 363.87,209.26 c -1.86,-1.86 -4.44,-2.93 -7.07,-2.93 -2.63,0 -5.21,1.07 -7.07,2.93 -1.86,1.86 -2.93,4.44 -2.93,7.07 0,2.64 1.071,5.22 2.93,7.08 1.86,1.86 4.44,2.92 7.07,2.92 2.63,0 5.21,-1.06 7.07,-2.92 1.86,-1.87 2.93,-4.44 2.93,-7.08 0,-2.63 -1.071,-5.21 -2.93,-7.07 z"
   id="path20"
   style="fill:#ececec"
   inkscape:connector-curvature="0" />
	</g>
</g>




<g
   id="g50">
</g>
<g
   id="g52">
</g>
<g
   id="g54">
</g>
<g
   id="g56">
</g>
<g
   id="g58">
</g>
<g
   id="g60">
</g>
<g
   id="g62">
</g>
<g
   id="g64">
</g>
<g
   id="g66">
</g>
<g
   id="g68">
</g>
<g
   id="g70">
</g>
<g
   id="g72">
</g>
<g
   id="g74">
</g>
<g
   id="g76">
</g>
<g
   id="g78">
</g>
</svg>